<svg xmlns="http://www.w3.org/2000/svg">
	<symbol id="icon-arrow" viewBox="0 0 24 24">
		<path d="M0 0h24v24H0z" fill="none"></path>
		<path
			d="M16.172 11l-5.364-5.364 1.414-1.414L20 12l-7.778 7.778-1.414-1.414L16.172 13H4v-2z"
			fill="currentColor"
		></path>
	</symbol>
	<symbol
		id="icon-play"
		viewBox="0 0 100 100"
	>
		<g>
			<path d="M31.356,25.677l38.625,22.3c1.557,0.899,1.557,3.147,0,4.046l-38.625,22.3c-1.557,0.899-3.504-0.225-3.504-2.023V27.7   C27.852,25.902,29.798,24.778,31.356,25.677z" />
			<path d="M69.981,47.977l-38.625-22.3c-0.233-0.134-0.474-0.21-0.716-0.259l37.341,21.559c1.557,0.899,1.557,3.147,0,4.046   l-38.625,22.3c-0.349,0.201-0.716,0.288-1.078,0.301c0.656,0.938,1.961,1.343,3.078,0.699l38.625-22.3   C71.538,51.124,71.538,48.876,69.981,47.977z" />
			<path d="M31.356,25.677l38.625,22.3c1.557,0.899,1.557,3.147,0,4.046   l-38.625,22.3c-1.557,0.899-3.504-0.225-3.504-2.023V27.7C27.852,25.902,29.798,24.778,31.356,25.677z" />
		</g>
	</symbol>
	<symbol
		id="icon-stop"
		viewBox="0 0 100 100"
	>
		<g>
			<path d="M68.251,72.84H30.749c-2.258,0-4.089-1.831-4.089-4.089V31.249c0-2.258,1.831-4.089,4.089-4.089h37.502   c2.258,0,4.089,1.831,4.089,4.089v37.502C72.34,71.009,70.509,72.84,68.251,72.84z" />
			<path d="M68.993,27.235c0.821,0.748,1.346,1.815,1.346,3.014v37.502c0,2.258-1.831,4.089-4.089,4.089H28.749   c-0.254,0-0.501-0.03-0.742-0.075c0.726,0.661,1.683,1.075,2.742,1.075h37.502c2.258,0,4.089-1.831,4.089-4.089V31.249   C72.34,29.245,70.896,27.585,68.993,27.235z" />
			<path d="M68.251,72.84H30.749c-2.258,0-4.089-1.831-4.089-4.089V31.249   c0-2.258,1.831-4.089,4.089-4.089h37.502c2.258,0,4.089,1.831,4.089,4.089v37.502C72.34,71.009,70.509,72.84,68.251,72.84z" />
		</g>
	</symbol>
	<symbol
		id="icon-pause"
		viewBox="0 0 100 100"
	>
		<g>
			<path d="M39.806,72.858h-8.915c-2.176,0-3.94-1.764-3.94-3.94V31.119c0-2.176,1.764-3.94,3.94-3.94h8.915   c2.176,0,3.94,1.764,3.94,3.94v37.799C43.746,71.094,41.982,72.858,39.806,72.858z" />
			<path d="M68.109,72.821h-8.915c-2.176,0-3.94-1.764-3.94-3.94V31.082c0-2.176,1.764-3.94,3.94-3.94h8.915   c2.176,0,3.94,1.764,3.94,3.94v37.799C72.049,71.057,70.285,72.821,68.109,72.821z" />
			<path d="M40.489,27.248c0.769,0.719,1.257,1.735,1.257,2.871v37.799c0,2.176-1.764,3.94-3.94,3.94h-8.915   c-0.234,0-0.46-0.03-0.683-0.069c0.704,0.658,1.643,1.069,2.683,1.069h8.915c2.176,0,3.94-1.764,3.94-3.94V31.119   C43.746,29.177,42.338,27.573,40.489,27.248z" />
			<path d="M68.792,27.211c0.769,0.719,1.257,1.735,1.257,2.871v37.799c0,2.176-1.764,3.94-3.94,3.94h-8.915   c-0.234,0-0.46-0.03-0.683-0.069c0.704,0.658,1.643,1.069,2.683,1.069h8.915c2.176,0,3.94-1.764,3.94-3.94V31.082   C72.049,29.14,70.641,27.535,68.792,27.211z" />
			<path d="M39.806,72.858h-8.915c-2.176,0-3.94-1.764-3.94-3.94V31.119   c0-2.176,1.764-3.94,3.94-3.94h8.915c2.176,0,3.94,1.764,3.94,3.94v37.799C43.746,71.094,41.982,72.858,39.806,72.858z" />
			<path d="M68.109,72.821h-8.915c-2.176,0-3.94-1.764-3.94-3.94V31.082   c0-2.176,1.764-3.94,3.94-3.94h8.915c2.176,0,3.94,1.764,3.94,3.94v37.799C72.049,71.057,70.285,72.821,68.109,72.821z" />
		</g>
	</symbol>
</svg>

