<svg display="none" xmlns="http://www.w3.org/2000/svg">
	<symbol id="arrow-right" viewBox="0 0 24 24">
		<path d="M0 0h24v24H0z" fill="none"></path>
		<path
			d="M16.172 11l-5.364-5.364 1.414-1.414L20 12l-7.778 7.778-1.414-1.414L16.172 13H4v-2z"
			fill="currentColor"
		></path>
	</symbol>
	<symbol
		id="play"
		viewBox="0 0 32 32"
	>
		<g><path d="M6 4l20 12-20 12z" fill="currentColor"></path></g>
	</symbol>
	<symbol
		id="stop"
		viewBox="0 0 32 32"
	>
		<g>
			<path d="M4 4h24v24h-24z" fill="currentColor"></path>
		</g>
	</symbol>
	<symbol
		id="pause"
		viewBox="0 0 32 32"
	>
		<g>
			<path d="M4 4h10v24h-10zM18 4h10v24h-10z" fill="currentColor"></path>
		</g>
	</symbol>
	<symbol
		id="search"
		viewBox="0 0 32 32"
	>
		<g>
			<path d="M31.008 27.231l-7.58-6.447c-0.784-0.705-1.622-1.029-2.299-0.998 1.789-2.096 2.87-4.815 2.87-7.787 0-6.627-5.373-12-12-12s-12 5.373-12 12 5.373 12 12 12c2.972 0 5.691-1.081 7.787-2.87-0.031 0.677 0.293 1.515 0.998 2.299l6.447 7.58c1.104 1.226 2.907 1.33 4.007 0.23s0.997-2.903-0.23-4.007zM12 20c-4.418 0-8-3.582-8-8s3.582-8 8-8 8 3.582 8 8-3.582 8-8 8z"
				fill="currentColor"
			>
			</path>
		</g>
	</symbol>
	<symbol
		id="arrow-down"
		viewBox="0 0 32 32"
	>
		<g>
			<path d="M9.914 11.086l-2.829 2.829 8.914 8.914 8.914-8.914-2.828-2.828-6.086 6.086z" fill="currentColor"></path>
		</g>
	</symbol>
	<symbol id="pencil" viewBox="0 0 32 32">
		<g>
			<path d="M27 0c2.761 0 5 2.239 5 5 0 1.126-0.372 2.164-1 3l-2 2-7-7 2-2c0.836-0.628 1.874-1 3-1zM2 23l-2 9 9-2 18.5-18.5-7-7-18.5 18.5zM22.362 11.362l-14 14-1.724-1.724 14-14 1.724 1.724z"
				fill="currentColor"
			></path>
		</g>

	</symbol>
	<symbol id="close" viewBox="0 0 32 32">
		<path d="M31.708 25.708c-0-0-0-0-0-0l-9.708-9.708 9.708-9.708c0-0 0-0 0-0 0.105-0.105 0.18-0.227 0.229-0.357 0.133-0.356 0.057-0.771-0.229-1.057l-4.586-4.586c-0.286-0.286-0.702-0.361-1.057-0.229-0.13 0.048-0.252 0.124-0.357 0.228 0 0-0 0-0 0l-9.708 9.708-9.708-9.708c-0-0-0-0-0-0-0.105-0.104-0.227-0.18-0.357-0.228-0.356-0.133-0.771-0.057-1.057 0.229l-4.586 4.586c-0.286 0.286-0.361 0.702-0.229 1.057 0.049 0.13 0.124 0.252 0.229 0.357 0 0 0 0 0 0l9.708 9.708-9.708 9.708c-0 0-0 0-0 0-0.104 0.105-0.18 0.227-0.229 0.357-0.133 0.355-0.057 0.771 0.229 1.057l4.586 4.586c0.286 0.286 0.702 0.361 1.057 0.229 0.13-0.049 0.252-0.124 0.357-0.229 0-0 0-0 0-0l9.708-9.708 9.708 9.708c0 0 0 0 0 0 0.105 0.105 0.227 0.18 0.357 0.229 0.356 0.133 0.771 0.057 1.057-0.229l4.586-4.586c0.286-0.286 0.362-0.702 0.229-1.057-0.049-0.13-0.124-0.252-0.229-0.357z"
			fill="currentColor"
		></path>
	</symbol>
	<symbol id="delete" viewBox="0 0 32 32">
		<path d="M4 10v20c0 1.1 0.9 2 2 2h18c1.1 0 2-0.9 2-2v-20h-22zM10 28h-2v-14h2v14zM14 28h-2v-14h2v14zM18 28h-2v-14h2v14zM22 28h-2v-14h2v14z"
			fill="currentColor"
		></path>
		<path d="M26.5 4h-6.5v-2.5c0-0.825-0.675-1.5-1.5-1.5h-7c-0.825 0-1.5 0.675-1.5 1.5v2.5h-6.5c-0.825 0-1.5 0.675-1.5 1.5v2.5h26v-2.5c0-0.825-0.675-1.5-1.5-1.5zM18 4h-6v-1.975h6v1.975z"
			fill="currentColor"
		></path>
	</symbol>
</svg>
